<svg width="68" height="31" viewBox="0 0 68 31" fill="none" xmlns="http://www.w3.org/2000/svg">
<path d="M15.4931 28.2893C14.2149 29.4928 12.5767 30.2443 10.8296 30.4286C9.81132 30.561 8.78154 30.5812 7.75889 30.4886C5.71935 30.4174 3.74711 29.742 2.09306 28.5484C1.45133 28.1014 0.926391 27.5072 0.562188 26.8157C0.197985 26.1242 0.00519334 25.3555 0 24.5743C0.0157822 18.8057 -0.0138875 13.0371 0.0186633 7.26845C0.0434583 5.69384 0.611693 4.17601 1.62744 2.97129C2.91449 1.47866 4.69949 0.502099 6.6521 0.222393C7.94677 -0.0143474 9.26856 -0.0670663 10.578 0.0657962C12.5768 0.160046 14.4943 0.884124 16.0554 2.13411C17.242 3.09346 18.0114 4.4736 18.2028 5.9861C18.2925 6.65879 18.2393 7.32164 18.2896 8.02093H12.4837C12.4559 7.54778 12.3676 7.08009 12.2212 6.62923C12.1418 6.35451 11.9994 6.102 11.8055 5.8916C11.6115 5.68119 11.3713 5.51865 11.1037 5.41682C10.4941 5.13302 9.82802 4.99106 9.15551 5.00164C8.483 5.01222 7.8216 5.17506 7.22127 5.47789C6.82213 5.67929 6.48311 5.98195 6.23813 6.35553C5.99315 6.72911 5.8509 7.16044 5.82561 7.60626C5.61946 9.72874 5.75843 11.8581 5.73771 13.9836C5.71207 16.6221 5.72489 19.2617 5.73771 21.9002C5.68331 22.6984 5.86479 23.495 6.25956 24.1912C6.50894 24.5591 6.83887 24.8656 7.2244 25.0874C7.60993 25.3093 8.04096 25.4406 8.48484 25.4715C9.20043 25.5703 9.92925 25.5028 10.6145 25.2745C11.0834 25.1468 11.5024 24.8801 11.8162 24.5096C12.13 24.139 12.3239 23.6822 12.3722 23.1993C12.6149 21.525 12.3979 19.8398 12.4896 18.1152H10.1035V13.238H18.26V30.0513C17.7964 30.0513 17.3259 30.072 16.8573 30.0445C16.5358 30.0257 16.4766 29.6771 16.3079 29.4811C16.0136 29.0998 15.7416 28.7019 15.4931 28.2893Z" fill="#051655"/>
<path d="M44.0748 30.1413C42.7027 30.1413 41.3336 30.1797 39.9685 30.1235C39.6887 30.0869 39.4229 29.9793 39.1965 29.8111C38.9701 29.6428 38.7907 29.4194 38.6753 29.1623C38.2271 28.297 37.9435 27.3563 37.8389 26.3878C37.7511 25.8411 37.7037 25.2896 37.6337 24.7134H31.0505C30.8789 25.7358 30.7369 26.7414 30.5346 27.7351C30.4232 28.5147 30.0545 29.2349 29.4871 29.7818C29.2706 29.9937 28.9848 30.1203 28.6822 30.1383C27.469 30.16 26.2557 30.1472 25 30.1472C25.3423 28.4019 25.7033 26.7 26.0071 24.9803C26.3829 22.8588 26.7962 20.7452 27.2065 18.6316C27.6376 16.4136 28.0075 14.1838 28.4228 11.9618C28.7424 10.2569 29.1064 8.56092 29.424 6.85604C29.7525 5.0901 30.0158 3.31038 30.3719 1.55035C30.4138 1.11782 30.6224 0.718481 30.9537 0.436734C31.285 0.154986 31.7131 0.0128845 32.1474 0.0404618C33.6852 0.0512958 35.2239 0.0729637 36.7607 0.0404618C37.2652 -0.0223134 37.7741 0.11582 38.1773 0.424951C38.5805 0.734083 38.8455 1.18934 38.915 1.69216C39.2365 3.04542 39.4289 4.42824 39.6785 5.79825C39.8758 6.88854 40.0809 7.97786 40.2762 9.06815C40.511 10.381 40.7359 11.6949 40.9667 13.0078C41.1857 14.231 41.4155 15.4533 41.6374 16.6766C41.8774 18.0029 42.1152 19.3299 42.3506 20.6576C42.541 21.7193 42.7284 22.782 42.9227 23.8428C43.1594 25.1389 43.404 26.4341 43.6408 27.7302C43.7907 28.5191 43.9278 29.3159 44.0748 30.1413ZM34.4624 5.85833C34.4151 5.9125 34.351 5.95191 34.3431 6.00017C34.2445 6.60589 34.1458 7.21357 34.0471 7.82027C33.8785 8.82488 33.7029 9.82752 33.5313 10.8311C33.334 11.9822 33.1367 13.1335 32.9394 14.2852C32.7372 15.4671 32.5282 16.649 32.3319 17.8309C32.2165 18.5262 32.1089 19.2235 32.0221 19.9228C32.0074 19.9911 32.0086 20.0618 32.0255 20.1295C32.0425 20.1973 32.0748 20.2602 32.12 20.3135C32.1652 20.3668 32.222 20.409 32.2861 20.4369C32.3501 20.4648 32.4198 20.4776 32.4897 20.4744C33.8114 20.4928 35.1332 20.4928 36.455 20.4744C36.7992 20.4744 37.0172 20.2488 36.887 19.9002C36.8149 19.6561 36.766 19.4058 36.741 19.1526C36.3464 16.91 35.9933 14.6595 35.6106 12.4149C35.2427 10.2323 34.8501 8.05763 34.4624 5.85833Z" fill="#051655"/>
<path d="M61.8245 24.9709C62.1651 24.2791 62.3233 23.512 62.2841 22.7421C62.2713 17.4649 62.2772 12.1878 62.2772 6.91064C62.2977 6.57043 62.2454 6.22979 62.1239 5.91131C62.0023 5.59282 61.8143 5.3038 61.5723 5.06346C61.3303 4.82311 61.0398 4.63692 60.7202 4.51729C60.4006 4.39766 60.0591 4.34732 59.7185 4.36959C59.22 4.33742 58.7196 4.39037 58.2389 4.52619C57.8555 4.66302 57.5149 4.89844 57.2517 5.20866C56.9885 5.51889 56.8118 5.89296 56.7396 6.29312C56.652 6.70926 56.6215 7.13534 56.6489 7.55969C56.6489 12.7295 56.64 17.9012 56.6489 23.0691C56.6489 24.574 57.1776 25.5057 58.6651 25.8554C58.7274 25.8793 58.787 25.91 58.8426 25.947C58.4242 26.354 58.0524 26.8063 57.7339 27.2953L61.4556 30.0865C61.0612 30.1615 60.6614 30.2043 60.2601 30.2146C58.5941 30.3397 56.9202 30.1235 55.3409 29.5793C54.41 29.2641 53.5667 28.7341 52.8792 28.0325C52.1918 27.3309 51.6797 26.4774 51.3845 25.5412C51.1303 24.7683 51.0031 23.9594 51.0077 23.1459C51.0077 17.7289 50.9841 12.3119 51.0196 6.90082C50.9876 5.56637 51.3749 4.25542 52.1271 3.15195C52.8793 2.04848 53.9587 1.20786 55.2137 0.748081C56.9447 0.126189 58.7912 -0.109162 60.6231 0.0586332C61.948 0.116747 63.245 0.458001 64.4266 1.05932C65.2461 1.477 65.9642 2.0685 66.5308 2.79241C67.0973 3.51632 67.4985 4.35513 67.7063 5.25011C67.8446 5.80801 67.9109 6.38128 67.9036 6.95597C67.8967 12.5394 67.9194 18.1238 67.8849 23.7073C67.8868 25.0839 67.3972 26.4161 66.5039 27.4647C65.7759 26.9112 65.0806 26.3459 64.3477 25.8347C63.6077 25.3097 62.7314 25.0097 61.8245 24.9709Z" fill="#051655"/>
<path d="M67.7802 29.2815C67.4845 29.7635 67.0794 30.1693 66.5975 30.466C66.1156 30.7627 65.5706 30.9419 65.0065 30.9893C63.7642 31.0328 62.5547 30.5867 61.639 29.7474C60.6526 28.9594 59.6366 28.2257 58.6344 27.4663C58.4125 27.2979 58.3385 27.1708 58.5526 26.8754C58.829 26.4941 59.1844 26.1768 59.5946 25.9448C60.0047 25.7128 60.4601 25.5717 60.9297 25.531C61.5906 25.4673 62.2575 25.549 62.8834 25.7702C63.5093 25.9914 64.0791 26.3468 64.5527 26.8113C65.5046 27.6071 66.5255 28.3183 67.5188 29.0678C67.5908 29.1219 67.6609 29.183 67.7802 29.2815Z" fill="#EB3D35"/>
</svg>
